<svg width="16" height="14" viewBox="0 0 16 14" fill="none" xmlns="http://www.w3.org/2000/svg">
<path d="M12.2788 4.14797C11.5834 2.86086 10.4417 1.87217 9.06848 1.36782C7.69522 0.863479 6.185 0.878237 4.82186 1.40932C3.45872 1.94041 2.33657 2.95123 1.66646 4.25168C0.996354 5.55212 0.824456 7.0526 1.1831 8.4709C1.54174 9.88921 2.40621 11.1276 3.61393 11.9532C4.82164 12.7788 6.28939 13.1348 7.74113 12.9541C9.19288 12.7733 10.5286 12.0685 11.497 10.972C12.1971 10.1794 12.6704 9.22165 12.879 8.1991" stroke="black" stroke-width="1.2"/>
<path fill-rule="evenodd" clip-rule="evenodd" d="M13.6 1L13.0677 5.95021L8.56512 3.82551L13.6 1Z" fill="black"/>
</svg>
