<svg width="16" height="16" viewBox="0 0 16 16" fill="none" xmlns="http://www.w3.org/2000/svg">
<path d="M7.23916 1.34164C7.47864 0.60459 8.52136 0.604592 8.76085 1.34164L9.95327 5.01155C10.0604 5.34117 10.3675 5.56434 10.7141 5.56434H14.5729C15.3479 5.56434 15.6701 6.55603 15.0431 7.01155L11.9213 9.27968C11.6409 9.4834 11.5236 9.84449 11.6307 10.1741L12.8231 13.844C13.0626 14.5811 12.219 15.194 11.592 14.7384L8.47023 12.4703C8.18984 12.2666 7.81016 12.2666 7.52977 12.4703L4.40796 14.7384C3.78099 15.194 2.9374 14.5811 3.17689 13.844L4.36931 10.1741C4.47641 9.84449 4.35908 9.4834 4.07869 9.27968L0.95688 7.01155C0.329909 6.55603 0.652131 5.56434 1.42711 5.56434H5.28588C5.63246 5.56434 5.93963 5.34117 6.04673 5.01155L7.23916 1.34164Z" stroke="black" stroke-width="1.2"/>
</svg>
